<?xml version="1.0" encoding="UTF-8"?>
<!-- Created with Grafika (https://www.grafika.cc/) -->
<svg xmlns="http://www.w3.org/2000/svg" xmlns:svg="http://www.w3.org/2000/svg" xmlns:xlink="http://www.w3.org/1999/xlink" width="2048" height="1881.59" viewBox="0 0 823.68 756.75" preserveAspectRatio="xMidYMid meet">
	<g transform="matrix(1, 0, 0, 1, 227.07455444335938, 631.35400390625)">
		<path d="M-50.7,-626.29 L591.54,0 L-125.44,0 L-50.7,-626.29 Z" fill-rule="evenodd" style="fill:#00B4D8;stroke:#000000;stroke-linecap:round;stroke-linejoin:round;stroke-width:10.14;" />
		<path d="M-101.64,-199.41 Q100,-200 100,0 L-125.44,0 L-101.64,-199.41 Z" fill-rule="evenodd" style="fill:#90E0EF;stroke:#000000;stroke-linecap:round;stroke-linejoin:round;stroke-width:10.14;" />
		<g transform="matrix(1.5080978870391846, 0, 0, 1.5080978870391846, -186.8052215576172, 32.30747985839844)">
			<path d="M19.05,28.43 L11.79,9.76 L-12.12,9.76 L-19.3,28.43 L-27,28.43 L-3.42,-32.16 L3.43,-32.16 L26.91,28.43 L19.05,28.43 ZM2.75,-15.26 Q2.5,-15.92 1.9,-17.69 Q1.31,-19.47 0.75,-21.37 Q0.21,-23.28 -0.12,-24.3 Q-0.55,-22.6 -1.02,-20.87 Q-1.48,-19.14 -1.95,-17.69 Q-2.41,-16.27 -2.74,-15.26 L-9.59,3 L9.5,3 L2.75,-15.26 Z" fill="#000000" />
		</g>
		<g transform="matrix(2.5963006019592285, 0, 0, 2.5963006019592285, 319.22906494140625, -337.62237548828125)">
			<path d="M0.35,-9.71 Q4.92,-9.71 7.1,-7.71 Q9.29,-5.71 9.29,-1.33 L9.29,15.68 L6.31,15.68 L5.52,12.14 L5.34,12.14 Q4.27,13.48 3.12,14.39 Q1.98,15.3 0.51,15.72 Q-0.95,16.15 -3.05,16.15 Q-5.29,16.15 -7.09,15.36 Q-8.87,14.56 -9.91,12.91 Q-10.93,11.25 -10.93,8.74 Q-10.93,5.01 -8,2.98 Q-5.05,0.96 1.05,0.77 L5.29,0.63 L5.29,-0.86 Q5.29,-3.99 3.94,-5.2 Q2.58,-6.41 0.11,-6.41 Q-1.84,-6.41 -3.62,-5.82 Q-5.38,-5.24 -6.92,-4.5 L-8.18,-7.57 Q-6.55,-8.46 -4.31,-9.09 Q-2.07,-9.71 0.35,-9.71 ZM1.56,3.61 Q-3.09,3.8 -4.89,5.11 Q-6.69,6.41 -6.69,8.79 Q-6.69,10.88 -5.41,11.86 Q-4.13,12.84 -2.11,12.84 Q1.05,12.84 3.14,11.09 Q5.25,9.34 5.25,5.7 L5.25,3.47 L1.56,3.61 Z" fill="#000000" />
		</g>
		<g transform="matrix(2.5963006019592285, 0, 0, 2.5963006019592285, -134.3407440185547, -330.7757568359375)">
			<path d="M-5.78,-10.25 Q-5.78,-8.8 -5.85,-7.53 Q-5.91,-6.26 -6,-5.53 L-5.78,-5.53 Q-4.79,-6.99 -3.08,-7.98 Q-1.36,-8.96 1.36,-8.96 Q5.65,-8.96 8.25,-5.97 Q10.85,-2.99 10.85,2.93 Q10.85,6.89 9.67,9.55 Q8.48,12.22 6.33,13.55 Q4.19,14.88 1.36,14.88 Q-1.36,14.88 -3.08,13.9 Q-4.79,12.91 -5.78,11.53 L-6.08,11.53 L-6.86,14.45 L-9.56,14.45 L-9.56,-18.21 L-5.78,-18.21 L-5.78,-10.25 ZM0.71,-5.83 Q-1.74,-5.83 -3.16,-4.9 Q-4.58,-3.98 -5.18,-2.07 Q-5.78,-0.16 -5.78,2.81 L-5.78,2.98 Q-5.78,7.23 -4.38,9.49 Q-2.98,11.75 0.79,11.75 Q3.89,11.75 5.41,9.47 Q6.94,7.19 6.94,2.89 Q6.94,-1.45 5.41,-3.63 Q3.89,-5.83 0.71,-5.83 Z" fill="#000000" />
		</g>
		<g transform="matrix(2.5963006019592285, 0, 0, 2.5963006019592285, 204.0863037109375, 37.249305725097656)">
			<path d="M2.79,16.1 Q-0.51,16.1 -3.1,14.75 Q-5.67,13.4 -7.14,10.58 Q-8.6,7.74 -8.6,3.33 Q-8.6,-1.28 -7.07,-4.16 Q-5.53,-7.04 -2.91,-8.38 Q-0.28,-9.73 3.06,-9.73 Q4.97,-9.73 6.74,-9.34 Q8.51,-8.95 9.62,-8.39 L8.36,-5 Q7.25,-5.41 5.76,-5.78 Q4.28,-6.16 2.97,-6.16 Q0.46,-6.16 -1.17,-5.09 Q-2.79,-4.02 -3.59,-1.93 Q-4.37,0.16 -4.37,3.27 Q-4.37,6.26 -3.59,8.34 Q-2.79,10.43 -1.21,11.51 Q0.37,12.58 2.75,12.58 Q4.79,12.58 6.34,12.16 Q7.9,11.74 9.2,11.13 L9.2,14.75 Q7.94,15.41 6.43,15.75 Q4.92,16.1 2.79,16.1 Z" fill="#000000" />
		</g>
	</g>
</svg>