<?xml version="1.0" encoding="UTF-8" standalone="no"?>
<!-- Created with Grafika (https://www.grafika.cc/) -->

<svg
   width="2048"
   height="2047.91"
   viewBox="0 0 2078.25 2078.25"
   preserveAspectRatio="xMidYMid meet"
   version="1.1"
   id="svg6"
   sodipodi:docname="angle.svg"
   inkscape:version="1.4 (86a8ad7, 2024-10-11)"
   xmlns:inkscape="http://www.inkscape.org/namespaces/inkscape"
   xmlns:sodipodi="http://sodipodi.sourceforge.net/DTD/sodipodi-0.dtd"
   xmlns:xlink="http://www.w3.org/1999/xlink"
   xmlns="http://www.w3.org/2000/svg"
   xmlns:svg="http://www.w3.org/2000/svg">
  <defs
     id="defs6">
    <linearGradient
       id="swatch9"
       inkscape:swatch="solid">
      <stop
         style="stop-color:#000000;stop-opacity:1;"
         offset="0"
         id="stop9" />
    </linearGradient>
    <rect
       x="114.80147"
       y="1488.7158"
       width="322.18476"
       height="385.1404"
       id="rect9" />
    <rect
       x="85.175282"
       y="1525.7485"
       width="288.8553"
       height="288.8553"
       id="rect8" />
    <rect
       x="151.8342"
       y="1518.342"
       width="237.00948"
       height="266.63566"
       id="rect7" />
    <linearGradient
       inkscape:collect="always"
       xlink:href="#swatch9"
       id="linearGradient9"
       x1="117.98828"
       y1="1523.4569"
       x2="158.48828"
       y2="1523.4569"
       gradientUnits="userSpaceOnUse" />
  </defs>
  <sodipodi:namedview
     id="namedview6"
     pagecolor="#505050"
     bordercolor="#ffffff"
     borderopacity="1"
     inkscape:showpageshadow="0"
     inkscape:pageopacity="0"
     inkscape:pagecheckerboard="1"
     inkscape:deskcolor="#505050"
     showguides="false"
     inkscape:zoom="0.27003139"
     inkscape:cx="1025.8067"
     inkscape:cy="1023.955"
     inkscape:window-width="1366"
     inkscape:window-height="705"
     inkscape:window-x="-8"
     inkscape:window-y="-8"
     inkscape:window-maximized="1"
     inkscape:current-layer="g6" />
  <g
     transform="matrix(1, 0, 0, 1, 1222.0439453125, 1232.9189453125)"
     id="g6">
    <path
       transform="matrix(2.4864025115966797, 0, 0, 2.4864025115966797, -656.849609375, 492.795654296875)"
       d="M-1.74,-572.25 L529.68,-54.04 L-63.58,-54.04 L-1.74,-572.25 L-1.74,-572.25 Z"
       fill-rule="evenodd"
       style="fill:#00B4D8;stroke:#000000;stroke-linecap:round;stroke-linejoin:round;stroke-width:10.14;"
       id="path1" />
    <path
       transform="matrix(2.4864025115966797, 0, 0, 2.4864025115966797, -551.4000244140625, 401.2178955078125)"
       d="M-86.3,-182.2 Q80.55,-182.69 80.55,-17.21 L-105.99,-17.21 L-86.3,-182.2 L-86.3,-182.2 Z"
       fill-rule="evenodd"
       style="fill:#90E0EF;stroke:#F5060B;stroke-linecap:round;stroke-linejoin:round;stroke-width:10.14;"
       id="path2" />
    <path
       d="m -912.90883,-388.04103 q 24.4016,0 36.0214,10.71605 11.74896,10.65149 11.74896,34.08476 v 90.82816 h -15.94496 l -4.196,-18.91446 h -0.9684 q -5.7453,7.16554 -11.878,12.00713 -6.0681,4.90614 -13.9437,7.10099 -7.8111,2.32397 -19.0436,2.32397 -11.9426,0 -21.5612,-4.19605 -9.4895,-4.32515 -15.0412,-13.10456 -5.4871,-8.90851 -5.4871,-22.27129 0,-19.94734 15.6867,-30.79249 15.7513,-10.7806 48.3513,-11.81347 l 22.6586,-0.7101 v -8.00476 q 0,-16.71961 -7.2301,-23.17505 -7.2946,-6.45545 -20.4637,-6.45545 -10.3933,0 -19.9474,3.16317 -9.3604,3.09861 -17.6234,7.03644 l -6.7136,-16.39684 q 8.7148,-4.71248 20.6574,-8.13387 12.0071,-3.29228 24.918,-3.29228 z m 6.4555,71.13904 q -24.8535,1.03287 -34.4721,8.00476 -9.6186,6.97188 -9.6186,19.68912 0,11.16792 6.8428,16.39683 6.8427,5.22892 17.6233,5.22892 16.9133,0 28.0812,-9.3604 11.2325,-9.3604 11.2325,-28.7913 v -11.87803 z"
       style="fill:#000000;stroke-width:6.45545"
       id="path4" />
    <path
       d="m -146.30399,468.74002 q 0,7.74654 -0.38733,14.52476 -0.32277,6.77822 -0.77466,10.71604 h 1.16199 q 5.29346,-7.81109 14.39564,-13.10456 9.2313,-5.22891 23.75605,-5.22891 22.916838,0 36.796058,15.94495 13.87921,15.94496 13.87921,47.57666 0,21.10931 -6.32634,35.3113 -6.32634,14.26654 -17.81703,21.36753 -11.42615,7.10099 -26.531898,7.10099 -14.52475,0 -23.75605,-5.22891 -9.10218,-5.29347 -14.39564,-12.65268 h -1.61387 l -4.13148,15.62219 h -14.46021 V 426.26317 h 20.20556 z m 34.66575,23.62694 q -13.10456,0 -20.65743,4.97069 -7.61743,4.90614 -10.7806,15.10575 -3.22772,10.19961 -3.22772,26.08001 v 0.90376 q 0,22.72318 7.48832,34.79487 7.48832,12.07169 27.56476,12.07169 16.590498,0 24.724368,-12.2008 8.13386,-12.2008 8.13386,-35.18219 0,-23.17506 -8.13386,-34.79487 -8.13387,-11.74891 -25.111698,-11.74891 z"
       style="fill:#000000;stroke-width:6.45545"
       id="path5" />
    <path
       d="m 92.157105,-422.23056 q -17.623374,0 -31.502587,-7.2301 -13.685551,-7.16555 -21.561197,-22.2713 -7.811093,-15.1703 -7.811093,-38.73268 0,-24.59526 8.19842,-39.95923 8.198419,-15.42852 22.206741,-22.52951 14.072877,-7.2301 31.889914,-7.2301 10.199607,0 19.624567,2.06574 9.4895,2.06574 15.42852,5.0998 l -6.71367,18.07526 q -5.93901,-2.19485 -13.94377,-4.13149 -7.87564,-2.06574 -14.847528,-2.06574 -13.427332,0 -22.142187,5.74535 -8.650301,5.68079 -12.910897,16.84872 -4.196041,11.16792 -4.196041,27.82298 0,15.94495 4.196041,27.04833 4.260596,11.16792 12.717233,16.91327 8.392083,5.74535 21.109316,5.74535 10.909703,0 19.172683,-2.25941 8.32753,-2.25941 15.29941,-5.48713 v 19.30179 q -6.71367,3.5505 -14.78298,5.35802 -8.06931,1.87208 -19.430895,1.87208 z"
       style="fill:#000000;stroke-width:6.45545"
       id="path6" />
    <rect
       x="-1221.54"
       y="-1232.42"
       width="2077.25"
       height="2077.25"
       style="fill:none;stroke:#000000;stroke-linecap:round;stroke-linejoin:round;stroke-width:1;"
       id="rect6" />
    <text
       xml:space="preserve"
       transform="matrix(1.0148151,0,0,1.0148151,-1222.0896,-1232.9189)"
       id="text6"
       style="fill:#fe0101;text-orientation:auto;stroke:#ff0000;text-align:start;writing-mode:lr-tb;direction:ltr;white-space:pre;shape-inside:url(#rect7)" />
    <text
       xml:space="preserve"
       transform="matrix(1.0148151,0,0,1.0148151,-1222.0896,-1232.9189)"
       id="text7"
       style="text-align:start;writing-mode:lr-tb;direction:ltr;white-space:pre;shape-inside:url(#rect8);fill:#fe0101;stroke:#ff0000;-inkscape-font-specification:Arial;font-family:Arial;font-weight:normal;font-style:normal;font-stretch:normal;font-variant:normal" />
    <text
       xml:space="preserve"
       transform="matrix(5.5193198,0,0,5.4209239,-1732.0404,-7838.3287)"
       id="text8"
       style="font-style:normal;font-variant:normal;font-weight:normal;font-stretch:normal;font-size:64px;font-family:Arial;-inkscape-font-specification:Arial;text-align:start;writing-mode:lr-tb;direction:ltr;white-space:pre;shape-inside:url(#rect9);fill:#000000;fill-opacity:1;stroke:none;stroke-opacity:1"><tspan
         x="114.80078"
         y="1546.3631"
         id="tspan1">C</tspan></text>
  </g>
</svg>
