<?xml version="1.0" encoding="UTF-8"?>
<!-- Created with Grafika (https://www.grafika.cc/) -->
<svg xmlns="http://www.w3.org/2000/svg" xmlns:svg="http://www.w3.org/2000/svg" xmlns:xlink="http://www.w3.org/1999/xlink" width="2048" height="2047.91" viewBox="0 0 2078.25 2078.25" preserveAspectRatio="xMidYMid meet">
	<g transform="matrix(1, 0, 0, 1, 1222.0439453125, 1232.9189453125)">
		<path transform="matrix(2.4864025115966797, 0, 0, 2.4864025115966797, -656.849609375, 492.795654296875)" d="M-1.74,-572.25 L529.68,-54.04 L-63.58,-54.04 L-1.74,-572.25 L-1.74,-572.25 Z" fill-rule="evenodd" style="fill:#00B4D8;stroke:#000000;stroke-linecap:round;stroke-linejoin:round;stroke-width:10.14;" />
		<path transform="matrix(2.4864025115966797, 0, 0, 2.4864025115966797, -551.4000244140625, 401.2178955078125)" d="M-86.3,-182.2 Q80.55,-182.69 80.55,-17.21 L-105.99,-17.21 L-86.3,-182.2 L-86.3,-182.2 Z" fill-rule="evenodd" style="fill:#90E0EF;stroke:#F5060B;stroke-linecap:round;stroke-linejoin:round;stroke-width:10.14;" />
		<path transform="matrix(3.7497384548187256, 0, 0, 3.7497384548187256, -941.1512451171875, 426.11285400390625)" d="M15.75,23.2 L9.75,7.75 L-10.04,7.75 L-15.98,23.2 L-22.35,23.2 L-2.84,-26.93 L2.83,-26.93 L22.26,23.2 L15.75,23.2 L15.75,23.2 ZM2.27,-12.95 Q2.06,-13.49 1.56,-14.96 Q1.08,-16.43 0.61,-18 Q0.17,-19.58 -0.11,-20.43 Q-0.46,-19.02 -0.85,-17.59 Q-1.23,-16.16 -1.62,-14.96 Q-2,-13.78 -2.27,-12.95 L-7.94,2.16 L7.85,2.16 L2.27,-12.95 L2.27,-12.95 Z" style="fill:#000000;" />
		<path transform="matrix(6.455448150634766, 0, 0, 6.455448150634766, 100.82000732421875, -339.7542724609375)" d="M0.15,-7.48 Q3.93,-7.48 5.73,-5.82 Q7.55,-4.17 7.55,-0.54 L7.55,13.53 L5.08,13.53 L4.43,10.6 L4.28,10.6 Q3.39,11.71 2.44,12.46 Q1.5,13.22 0.28,13.56 Q-0.93,13.92 -2.67,13.92 Q-4.52,13.92 -6.01,13.27 Q-7.48,12.6 -8.34,11.24 Q-9.19,9.86 -9.19,7.79 Q-9.19,4.7 -6.76,3.02 Q-4.32,1.35 0.73,1.19 L4.24,1.08 L4.24,-0.16 Q4.24,-2.75 3.12,-3.75 Q1.99,-4.75 -0.05,-4.75 Q-1.66,-4.75 -3.14,-4.26 Q-4.59,-3.78 -5.87,-3.17 L-6.91,-5.71 Q-5.56,-6.44 -3.71,-6.97 Q-1.85,-7.48 0.15,-7.48 L0.15,-7.48 ZM1.15,3.54 Q-2.7,3.7 -4.19,4.78 Q-5.68,5.86 -5.68,7.83 Q-5.68,9.56 -4.62,10.37 Q-3.56,11.18 -1.89,11.18 Q0.73,11.18 2.46,9.73 Q4.2,8.28 4.2,5.27 L4.2,3.43 L1.15,3.54 L1.15,3.54 Z" style="fill:#000000;" />
		<path transform="matrix(6.455448150634766, 0, 0, 6.455448150634766, -833.9613037109375, -320.22662353515625)" d="M-4.67,-8.77 Q-4.67,-7.57 -4.73,-6.52 Q-4.78,-5.47 -4.85,-4.86 L-4.67,-4.86 Q-3.85,-6.07 -2.44,-6.89 Q-1.01,-7.7 1.24,-7.7 Q4.79,-7.7 6.94,-5.23 Q9.09,-2.76 9.09,2.14 Q9.09,5.41 8.11,7.61 Q7.13,9.82 5.35,10.92 Q3.58,12.02 1.24,12.02 Q-1.01,12.02 -2.44,11.21 Q-3.85,10.39 -4.67,9.25 L-4.92,9.25 L-5.56,11.67 L-7.8,11.67 L-7.8,-15.35 L-4.67,-15.35 L-4.67,-8.77 L-4.67,-8.77 ZM0.7,-5.11 Q-1.33,-5.11 -2.5,-4.34 Q-3.68,-3.58 -4.17,-2 Q-4.67,-0.42 -4.67,2.04 L-4.67,2.18 Q-4.67,5.7 -3.51,7.57 Q-2.35,9.44 0.76,9.44 Q3.33,9.44 4.59,7.55 Q5.85,5.66 5.85,2.1 Q5.85,-1.49 4.59,-3.29 Q3.33,-5.11 0.7,-5.11 L0.7,-5.11 Z" style="fill:#000000;" />
		<path transform="matrix(6.455448150634766, 0, 0, 6.455448150634766, -137.5498046875, 431.5248718261719)" d="M2.4,13.87 Q-0.33,13.87 -2.48,12.75 Q-4.6,11.64 -5.82,9.3 Q-7.03,6.95 -7.03,3.3 Q-7.03,-0.51 -5.76,-2.89 Q-4.49,-5.28 -2.32,-6.38 Q-0.14,-7.5 2.62,-7.5 Q4.2,-7.5 5.66,-7.18 Q7.13,-6.86 8.05,-6.39 L7.01,-3.59 Q6.09,-3.93 4.85,-4.23 Q3.63,-4.55 2.55,-4.55 Q0.47,-4.55 -0.88,-3.66 Q-2.22,-2.78 -2.88,-1.05 Q-3.53,0.68 -3.53,3.26 Q-3.53,5.73 -2.88,7.45 Q-2.22,9.18 -0.91,10.07 Q0.39,10.96 2.36,10.96 Q4.05,10.96 5.33,10.61 Q6.62,10.26 7.7,9.76 L7.7,12.75 Q6.66,13.3 5.41,13.58 Q4.16,13.87 2.4,13.87 L2.4,13.87 Z" style="fill:#000000;" />
		<rect x="-1221.54" y="-1232.42" width="2077.25" height="2077.25" style="fill:none;stroke:#000000;stroke-linecap:round;stroke-linejoin:round;stroke-width:1;" />
	</g>
</svg>