<?xml version="1.0" encoding="UTF-8"?>
<!-- Created with Grafika (https://www.grafika.cc/) -->
<svg xmlns="http://www.w3.org/2000/svg" xmlns:svg="http://www.w3.org/2000/svg" xmlns:xlink="http://www.w3.org/1999/xlink" width="2048" height="2047.97" viewBox="0 0 2423.92 2423.92" preserveAspectRatio="xMidYMid meet">
	<g transform="matrix(1, 0, 0, 1, 1047.825439453125, 1268.86669921875)">
		<path transform="matrix(3.143592119216919, 0, 0, 3.143592119216919, -580.9788818359375, 585.5232543945312)" d="M288.55,-506.91 L421.99,134.39 L2.07,-327.43 L288.55,-506.91 L288.55,-506.91 L288.55,-506.91 Z" fill-rule="evenodd" style="fill:#00B4D8;stroke:#000000;stroke-linecap:round;stroke-linejoin:round;stroke-width:10.14;" />
		<path transform="matrix(2.062551259994507, 2.372351884841919, -2.372351884841919, 2.062551259994507, -477.3175354003906, -145.8995361328125)" d="M-72.24,-163.21 Q31.72,-160.55 39.33,-41.77 L-91.79,-38.85 L-72.24,-163.21 L-72.24,-163.21 L-72.24,-163.21 Z" fill-rule="evenodd" style="fill:#90E0EF;stroke:#000000;stroke-linecap:round;stroke-linejoin:round;stroke-width:10.14;" />
		<path transform="matrix(8.161709785461426, 0, 0, 8.161709785461426, -111.62149047851562, 529.2225341796875)" d="M4.2,-25.26 Q7.21,-25.26 8.64,-23.95 Q10.08,-22.63 10.08,-19.74 L10.08,-8.55 L8.13,-8.55 L7.6,-10.87 L7.48,-10.87 Q6.77,-9.99 6.02,-9.39 Q5.27,-8.79 4.31,-8.51 Q3.33,-8.24 1.96,-8.24 Q0.48,-8.24 -0.7,-8.75 Q-1.88,-9.28 -2.56,-10.36 Q-3.23,-11.46 -3.23,-13.11 Q-3.23,-15.57 -1.3,-16.91 Q0.64,-18.24 4.65,-18.37 L7.45,-18.46 L7.45,-19.44 Q7.45,-21.5 6.56,-22.29 Q5.67,-23.1 4.04,-23.1 Q2.75,-23.1 1.58,-22.71 Q0.42,-22.32 -0.59,-21.83 L-1.42,-23.85 Q-0.35,-24.44 1.13,-24.85 Q2.6,-25.26 4.2,-25.26 L4.2,-25.26 L4.2,-25.26 ZM4.99,-16.49 Q1.93,-16.37 0.75,-15.5 Q-0.44,-14.65 -0.44,-13.08 Q-0.44,-11.7 0.4,-11.06 Q1.24,-10.42 2.58,-10.42 Q4.65,-10.42 6.04,-11.56 Q7.42,-12.72 7.42,-15.11 L7.42,-16.58 L4.99,-16.49 L4.99,-16.49 L4.99,-16.49 Z" style="fill:#000000;" />
		<path transform="matrix(8.161709785461426, 0, 0, 8.161709785461426, -374.5729675292969, -1165.46044921875)" d="M9.64,34.99 Q9.64,35.92 9.59,36.73 Q9.55,37.55 9.5,38.01 L9.64,38.01 Q10.27,37.08 11.37,36.44 Q12.47,35.81 14.21,35.81 Q16.96,35.81 18.63,37.73 Q20.3,39.64 20.3,43.44 Q20.3,45.97 19.54,47.68 Q18.78,49.39 17.4,50.25 Q16.03,51.1 14.21,51.1 Q12.47,51.1 11.37,50.47 Q10.27,49.84 9.64,48.95 L9.44,48.95 L8.95,50.82 L7.21,50.82 L7.21,29.89 L9.64,29.89 L9.64,34.99 L9.64,34.99 L9.64,34.99 ZM13.79,37.83 Q12.23,37.83 11.31,38.42 Q10.41,39.01 10.02,40.23 Q9.64,41.46 9.64,43.36 L9.64,43.47 Q9.64,46.2 10.53,47.65 Q11.43,49.09 13.85,49.09 Q15.83,49.09 16.81,47.63 Q17.79,46.17 17.79,43.41 Q17.79,40.63 16.81,39.23 Q15.83,37.83 13.79,37.83 L13.79,37.83 L13.79,37.83 Z" style="fill:#000000;" />
		<path transform="matrix(8.161709785461426, 0, 0, 8.161709785461426, -981.950927734375, -621.1821899414062)" d="M37.73,12.48 Q35.93,12.48 34.49,13.09 Q33.05,13.71 32.05,14.88 Q31.05,16.05 30.51,17.72 Q29.99,19.41 29.99,21.51 Q29.99,24.26 30.84,26.31 Q31.7,28.35 33.41,29.44 Q35.13,30.53 37.7,30.53 Q39.17,30.53 40.49,30.29 Q41.8,30.03 43.05,29.66 L43.05,32.1 Q41.8,32.58 40.47,32.79 Q39.14,33.01 37.28,33.01 Q33.87,33.01 31.58,31.61 Q29.29,30.19 28.14,27.59 Q27.01,24.98 27.01,21.48 Q27.01,18.94 27.71,16.84 Q28.41,14.73 29.77,13.2 Q31.15,11.66 33.15,10.84 Q35.15,10 37.76,10 Q39.48,10 41.08,10.35 Q42.68,10.69 43.94,11.32 L42.8,13.71 Q41.77,13.23 40.5,12.85 Q39.23,12.48 37.73,12.48 L37.73,12.48 L37.73,12.48 Z" style="fill:#000000;" />
		<path transform="matrix(6.274411201477051, 0, 0, 6.274411201477051, 235.91259765625, -357.55438232421875)" d="M-31.25,10.95 Q-28.61,10.95 -27.35,12.12 Q-26.07,13.27 -26.07,15.81 L-26.07,25.67 L-27.8,25.67 L-28.26,23.62 L-28.37,23.62 Q-28.98,24.4 -29.65,24.93 Q-30.31,25.45 -31.16,25.7 Q-32.01,25.94 -33.22,25.94 Q-34.53,25.94 -35.56,25.49 Q-36.6,25.03 -37.2,24.07 Q-37.8,23.11 -37.8,21.65 Q-37.8,19.48 -36.09,18.31 Q-34.39,17.14 -30.86,17.03 L-28.4,16.95 L-28.4,16.09 Q-28.4,14.27 -29.18,13.57 Q-29.96,12.87 -31.39,12.87 Q-32.53,12.87 -33.56,13.21 Q-34.58,13.55 -35.46,13.97 L-36.2,12.2 Q-35.26,11.68 -33.96,11.32 Q-32.66,10.95 -31.25,10.95 L-31.25,10.95 L-31.25,10.95 ZM-30.56,18.68 Q-33.25,18.79 -34.29,19.55 Q-35.34,20.3 -35.34,21.67 Q-35.34,22.89 -34.6,23.45 Q-33.85,24.02 -32.68,24.02 Q-30.86,24.02 -29.64,23.01 Q-28.42,22 -28.42,19.89 L-28.42,18.6 L-30.56,18.68 L-30.56,18.68 L-30.56,18.68 ZM-14.84,10.93 Q-14.43,10.93 -13.96,10.97 Q-13.49,11.01 -13.14,11.09 L-13.44,13.27 Q-13.78,13.19 -14.2,13.15 Q-14.62,13.08 -15,13.08 Q-15.83,13.08 -16.59,13.44 Q-17.35,13.79 -17.94,14.42 Q-18.53,15.06 -18.87,15.95 Q-19.21,16.85 -19.21,17.95 L-19.21,25.67 L-21.59,25.67 L-21.59,11.2 L-19.65,11.2 L-19.38,13.84 L-19.27,13.84 Q-18.81,13.03 -18.16,12.37 Q-17.51,11.71 -16.67,11.32 Q-15.83,10.93 -14.84,10.93 L-14.84,10.93 L-14.84,10.93 ZM-5.38,10.93 Q-3.52,10.93 -2.18,11.74 Q-0.85,12.54 -0.14,14.02 Q0.58,15.49 0.58,17.46 L0.58,18.9 L-9.33,18.9 Q-9.27,21.36 -8.08,22.64 Q-6.87,23.91 -4.72,23.91 Q-3.33,23.91 -2.27,23.66 Q-1.2,23.4 -0.06,22.92 L-0.06,25 Q-1.17,25.48 -2.25,25.71 Q-3.33,25.94 -4.81,25.94 Q-6.87,25.94 -8.45,25.11 Q-10.03,24.27 -10.91,22.6 Q-11.78,20.94 -11.78,18.54 Q-11.78,16.17 -10.99,14.46 Q-10.19,12.76 -8.75,11.85 Q-7.3,10.93 -5.38,10.93 L-5.38,10.93 L-5.38,10.93 ZM-5.41,12.87 Q-7.11,12.87 -8.1,13.96 Q-9.08,15.06 -9.27,17 L-1.9,17 Q-1.9,15.76 -2.28,14.85 Q-2.65,13.93 -3.42,13.39 Q-4.2,12.87 -5.41,12.87 L-5.41,12.87 L-5.41,12.87 ZM9.74,10.95 Q12.39,10.95 13.65,12.12 Q14.92,13.27 14.92,15.81 L14.92,25.67 L13.19,25.67 L12.73,23.62 L12.63,23.62 Q12.01,24.4 11.34,24.93 Q10.68,25.45 9.83,25.7 Q8.98,25.94 7.77,25.94 Q6.47,25.94 5.43,25.49 Q4.4,25.03 3.79,24.07 Q3.2,23.11 3.2,21.65 Q3.2,19.48 4.9,18.31 Q6.61,17.14 10.15,17.03 L12.61,16.95 L12.61,16.09 Q12.61,14.27 11.82,13.57 Q11.03,12.87 9.61,12.87 Q8.47,12.87 7.44,13.21 Q6.42,13.55 5.53,13.97 L4.8,12.2 Q5.74,11.68 7.04,11.32 Q8.34,10.95 9.74,10.95 L9.74,10.95 L9.74,10.95 ZM10.44,18.68 Q7.74,18.79 6.7,19.55 Q5.66,20.3 5.66,21.67 Q5.66,22.89 6.4,23.45 Q7.15,24.02 8.31,24.02 Q10.15,24.02 11.36,23.01 Q12.58,22 12.58,19.89 L12.58,18.6 L10.44,18.68 L10.44,18.68 L10.44,18.68 Z" style="fill:#000000;" />
		<path transform="matrix(3.143592119216919, 0, 0, 3.143592119216919, -580.9788818359375, 585.5232543945312)" d="M2.07,-327.43 L288.55,-506.91" fill-rule="evenodd" style="fill:#00B4D8;stroke:#F5060B;stroke-linecap:round;stroke-linejoin:round;stroke-width:10.14;" />
		<rect x="-1047.33" y="-1268.37" width="2422.92" height="2422.92" style="fill:none;stroke:#000000;stroke-linecap:round;stroke-linejoin:round;stroke-width:1;" />
	</g>
</svg>