<?xml version="1.0" encoding="UTF-8" standalone="no"?>
<!-- Created with Grafika (https://www.grafika.cc/) -->

<svg
   width="2048"
   height="2047.97"
   viewBox="0 0 2423.92 2423.92"
   preserveAspectRatio="xMidYMid meet"
   version="1.1"
   id="svg7"
   sodipodi:docname="line_chasing.svg"
   inkscape:version="1.4 (86a8ad7, 2024-10-11)"
   xmlns:inkscape="http://www.inkscape.org/namespaces/inkscape"
   xmlns:sodipodi="http://sodipodi.sourceforge.net/DTD/sodipodi-0.dtd"
   xmlns="http://www.w3.org/2000/svg"
   xmlns:svg="http://www.w3.org/2000/svg">
  <defs
     id="defs7" />
  <sodipodi:namedview
     id="namedview7"
     pagecolor="#505050"
     bordercolor="#ffffff"
     borderopacity="1"
     inkscape:showpageshadow="0"
     inkscape:pageopacity="0"
     inkscape:pagecheckerboard="1"
     inkscape:deskcolor="#505050"
     inkscape:zoom="0.27002349"
     inkscape:cx="1023.985"
     inkscape:cy="1023.985"
     inkscape:window-width="1366"
     inkscape:window-height="705"
     inkscape:window-x="-8"
     inkscape:window-y="-8"
     inkscape:window-maximized="1"
     inkscape:current-layer="g7" />
  <g
     transform="matrix(1, 0, 0, 1, 1047.825439453125, 1268.86669921875)"
     id="g7">
    <path
       d="M 673.77508,-880.89074 421.23638,907.18557 -622.69607,-810.75073 Z"
       fill-rule="evenodd"
       style="fill:#c1d800;stroke:#000000;stroke-width:31.858;stroke-linecap:round;stroke-linejoin:round;fill-opacity:1"
       id="path1"
       sodipodi:nodetypes="cccc" />
    <path
       transform="matrix(2.0625513,2.3723519,-2.3723519,2.0625513,-477.31754,-145.89954)"
       d="m -79.42873,-237.82213 c 72.9697374,40.06295 98.816453,102.0906 86.1389085,167.692065 L -183.42632,-105.58634 Z"
       fill-rule="evenodd"
       style="fill:#90e0ef;stroke:#000000;stroke-width:10.14;stroke-linecap:round;stroke-linejoin:round"
       id="path2"
       sodipodi:nodetypes="cccc" />
    <path
       d="m -226.37175,77.597492 q 24.56675,0 36.23799,10.69184 11.75286,10.773457 11.75286,34.360798 v 91.32953 h -15.91533 l -4.32571,-18.93516 h -0.9794 q -5.79481,7.1823 -11.9161,12.07933 -6.12128,4.89702 -13.95652,7.1823 -7.99848,2.20366 -19.18002,2.20366 -12.07933,0 -21.71015,-4.16247 -9.63081,-4.32571 -15.18078,-13.14035 -5.46834,-8.97788 -5.46834,-22.4447 0,-20.07781 15.7521,-31.0145 15.83371,-10.85508 48.56217,-11.9161 l 22.85279,-0.73455 v -7.99848 q 0,-16.81312 -7.26392,-23.26087 -7.26393,-6.610985 -20.56751,-6.610985 -10.52861,0 -20.07781,3.183067 -9.46758,3.183068 -17.71091,7.182308 l -6.77422,-16.486657 q 8.73303,-4.815409 20.81236,-8.16171 11.99772,-3.346301 25.05645,-3.346301 z m 6.44775,71.578198 q -24.97483,0.9794 -34.60565,8.08009 -9.71243,6.93745 -9.71243,19.75134 0,11.26316 6.85583,16.48665 6.85584,5.2235 17.79253,5.2235 16.89474,0 28.23952,-9.30435 11.26316,-9.46759 11.26316,-28.97407 v -11.99772 l -19.83296,0.73456 z"
       style="fill:#000000;stroke-width:8.16171"
       id="path3" />
    <path
       d="m -124.94855,-1055.211 q 0,7.5904 -0.40809,14.2014 -0.32647,6.6926 -0.73455,10.447 h 1.14264 q 5.14188,-7.5904 14.11976,-12.8139 8.97788,-5.1419 23.179252,-5.1419 22.444702,0 36.074757,15.6705 13.630056,15.5889 13.630056,46.60337 0,20.64913 -6.2029,34.60565 -6.202899,13.95652 -17.466059,20.9756 -11.181542,6.93745 -26.035854,6.93745 -14.201372,0 -23.179252,-5.14188 -8.97788,-5.14188 -14.11976,-12.4058 h -1.63234 l -3.99924,15.2624 h -14.20138 v -170.82459 h 19.83296 v 41.6247 z m 33.871094,23.1793 q -12.732264,0 -20.241044,4.8154 -7.34554,4.8154 -10.5286,14.7727 -3.10145,10.0389 -3.10145,25.54613 v 0.89779 q 0,22.28147 7.26392,34.11595 7.34554,11.75286 27.096876,11.75286 16.160186,0 24.158661,-11.91609 7.998476,-11.9161 7.998476,-34.44242 0,-22.68952 -7.998476,-34.11592 -7.998475,-11.4264 -24.648363,-11.4264 z"
       style="fill:#000000;stroke-width:8.16171"
       id="path4" />
    <path
       d="m -717.84181,-900.66409 q -14.69107,0 -26.44394,4.97864 -11.75286,5.06027 -19.91457,14.60947 -8.16171,9.5492 -12.56903,23.17925 -4.24409,13.79329 -4.24409,30.93288 0,22.4447 6.93745,39.17621 7.01907,16.64989 20.9756,25.54615 14.03814,8.89626 35.01373,8.89626 11.99772,0 22.77117,-1.95881 10.69184,-2.12204 20.89398,-5.14187 v 19.91457 q -10.20214,3.91762 -21.05721,5.63158 -10.85507,1.79557 -26.03585,1.79557 -27.83144,0 -46.52175,-11.42639 -18.69032,-11.58963 -28.07628,-32.81007 -9.22273,-21.30207 -9.22273,-49.86805 0,-20.73074 5.71319,-37.87033 5.7132,-17.22121 16.81312,-29.70863 11.26316,-12.56903 27.58658,-19.26163 16.32342,-6.85584 37.62549,-6.85584 14.03814,0 27.09687,2.8566 13.05874,2.77498 23.34249,7.91686 l -9.30435,19.50649 q -8.40656,-3.91763 -18.77193,-7.01908 -10.36537,-3.01983 -22.60794,-3.01983 z"
       style="fill:#000000;stroke-width:8.16171"
       id="path5" />
    <path
       transform="matrix(6.274411201477051, 0, 0, 6.274411201477051, 235.91259765625, -357.55438232421875)"
       d="M-31.25,10.95 Q-28.61,10.95 -27.35,12.12 Q-26.07,13.27 -26.07,15.81 L-26.07,25.67 L-27.8,25.67 L-28.26,23.62 L-28.37,23.62 Q-28.98,24.4 -29.65,24.93 Q-30.31,25.45 -31.16,25.7 Q-32.01,25.94 -33.22,25.94 Q-34.53,25.94 -35.56,25.49 Q-36.6,25.03 -37.2,24.07 Q-37.8,23.11 -37.8,21.65 Q-37.8,19.48 -36.09,18.31 Q-34.39,17.14 -30.86,17.03 L-28.4,16.95 L-28.4,16.09 Q-28.4,14.27 -29.18,13.57 Q-29.96,12.87 -31.39,12.87 Q-32.53,12.87 -33.56,13.21 Q-34.58,13.55 -35.46,13.97 L-36.2,12.2 Q-35.26,11.68 -33.96,11.32 Q-32.66,10.95 -31.25,10.95 L-31.25,10.95 L-31.25,10.95 ZM-30.56,18.68 Q-33.25,18.79 -34.29,19.55 Q-35.34,20.3 -35.34,21.67 Q-35.34,22.89 -34.6,23.45 Q-33.85,24.02 -32.68,24.02 Q-30.86,24.02 -29.64,23.01 Q-28.42,22 -28.42,19.89 L-28.42,18.6 L-30.56,18.68 L-30.56,18.68 L-30.56,18.68 ZM-14.84,10.93 Q-14.43,10.93 -13.96,10.97 Q-13.49,11.01 -13.14,11.09 L-13.44,13.27 Q-13.78,13.19 -14.2,13.15 Q-14.62,13.08 -15,13.08 Q-15.83,13.08 -16.59,13.44 Q-17.35,13.79 -17.94,14.42 Q-18.53,15.06 -18.87,15.95 Q-19.21,16.85 -19.21,17.95 L-19.21,25.67 L-21.59,25.67 L-21.59,11.2 L-19.65,11.2 L-19.38,13.84 L-19.27,13.84 Q-18.81,13.03 -18.16,12.37 Q-17.51,11.71 -16.67,11.32 Q-15.83,10.93 -14.84,10.93 L-14.84,10.93 L-14.84,10.93 ZM-5.38,10.93 Q-3.52,10.93 -2.18,11.74 Q-0.85,12.54 -0.14,14.02 Q0.58,15.49 0.58,17.46 L0.58,18.9 L-9.33,18.9 Q-9.27,21.36 -8.08,22.64 Q-6.87,23.91 -4.72,23.91 Q-3.33,23.91 -2.27,23.66 Q-1.2,23.4 -0.06,22.92 L-0.06,25 Q-1.17,25.48 -2.25,25.71 Q-3.33,25.94 -4.81,25.94 Q-6.87,25.94 -8.45,25.11 Q-10.03,24.27 -10.91,22.6 Q-11.78,20.94 -11.78,18.54 Q-11.78,16.17 -10.99,14.46 Q-10.19,12.76 -8.75,11.85 Q-7.3,10.93 -5.38,10.93 L-5.38,10.93 L-5.38,10.93 ZM-5.41,12.87 Q-7.11,12.87 -8.1,13.96 Q-9.08,15.06 -9.27,17 L-1.9,17 Q-1.9,15.76 -2.28,14.85 Q-2.65,13.93 -3.42,13.39 Q-4.2,12.87 -5.41,12.87 L-5.41,12.87 L-5.41,12.87 ZM9.74,10.95 Q12.39,10.95 13.65,12.12 Q14.92,13.27 14.92,15.81 L14.92,25.67 L13.19,25.67 L12.73,23.62 L12.63,23.62 Q12.01,24.4 11.34,24.93 Q10.68,25.45 9.83,25.7 Q8.98,25.94 7.77,25.94 Q6.47,25.94 5.43,25.49 Q4.4,25.03 3.79,24.07 Q3.2,23.11 3.2,21.65 Q3.2,19.48 4.9,18.31 Q6.61,17.14 10.15,17.03 L12.61,16.95 L12.61,16.09 Q12.61,14.27 11.82,13.57 Q11.03,12.87 9.61,12.87 Q8.47,12.87 7.44,13.21 Q6.42,13.55 5.53,13.97 L4.8,12.2 Q5.74,11.68 7.04,11.32 Q8.34,10.95 9.74,10.95 L9.74,10.95 L9.74,10.95 ZM10.44,18.68 Q7.74,18.79 6.7,19.55 Q5.66,20.3 5.66,21.67 Q5.66,22.89 6.4,23.45 Q7.15,24.02 8.31,24.02 Q10.15,24.02 11.36,23.01 Q12.58,22 12.58,19.89 L12.58,18.6 L10.44,18.68 L10.44,18.68 L10.44,18.68 Z"
       style="fill:#000000;"
       id="path6" />
    <path
       d="M -613.92061,-803.20705 672.3789,-880.88167"
       fill-rule="evenodd"
       style="fill:#00b4d8;stroke:#f5060b;stroke-width:31.876;stroke-linecap:round;stroke-linejoin:round"
       id="path7"
       sodipodi:nodetypes="cc" />
    <rect
       x="-1047.33"
       y="-1268.37"
       width="2422.92"
       height="2422.92"
       style="fill:none;stroke:#000000;stroke-linecap:round;stroke-linejoin:round;stroke-width:1;"
       id="rect7" />
  </g>
</svg>
