<?xml version="1.0" encoding="UTF-8"?>
<!-- Created with Grafika (https://www.grafika.cc/) -->
<svg xmlns="http://www.w3.org/2000/svg" xmlns:svg="http://www.w3.org/2000/svg" xmlns:xlink="http://www.w3.org/1999/xlink" width="1914.74" height="2048" viewBox="0 0 536.33 573.65" preserveAspectRatio="xMidYMid meet">
	<g transform="matrix(1, 0, 0, 1, 263.0026550292969, 301.08184814453125)">
		<path d="M-258.5,76.62 L28.74,-296.58 L268.12,220.24 L-258.5,76.62 L-258.5,76.62 Z" style="fill:#6B9DFF;stroke:#000000;stroke-linecap:square;stroke-linejoin:miter;stroke-miterlimit:4;stroke-width:9;" />
		<g transform="matrix(1.289409875869751, 0, 0, 1, -168.2963104248047, -129.98703002929688)">
			<path d="M12.64,43.36 Q11.67,41.26 11.24,37.22 Q8.44,40.18 4.23,42.31 Q0.03,44.44 -5.36,44.44 Q-14.3,44.44 -19.68,39.43 Q-25.07,34.42 -25.07,27.14 Q-25.07,17.77 -17.96,12.89 Q-10.85,8.02 1.16,8.02 L11.02,8.02 L11.02,3.39 Q11.02,-1.79 7.92,-4.88 Q4.83,-7.98 -1.26,-7.98 Q-6.92,-7.98 -10.39,-5.21 Q-13.87,-2.43 -13.87,1.23 L-23.83,1.23 Q-23.83,-5.02 -17.53,-10.51 Q-11.23,-16.01 -0.67,-16.01 Q8.81,-16.01 14.9,-11.16 Q20.99,-6.31 20.99,3.49 L20.99,29.67 Q20.99,37.76 23.03,42.5 L23.03,43.36 L12.64,43.36 ZM-3.9,35.71 Q1.49,35.71 5.45,33.01 Q9.41,30.32 11.02,27.04 L11.02,15.02 L1.76,15.02 Q-15.05,15.35 -15.05,25.8 Q-15.05,29.94 -12.25,32.83 Q-9.45,35.71 -3.9,35.71 Z" fill="#000206" />
		</g>
		<g transform="matrix(1.429890513420105, 0, 0, 1, 224.81541442871094, -50.887184143066406)">
			<path d="M23.04,14.86 Q23.04,27.63 17.12,36.03 Q11.19,44.44 0.36,44.44 Q-10.68,44.44 -16.66,36.62 L-17.2,43.36 L-26.36,43.36 L-26.36,-39.39 L-16.34,-39.39 L-16.34,-8.63 Q-10.41,-16.01 0.25,-16.01 Q11.24,-16.01 17.14,-7.82 Q23.04,0.37 23.04,13.73 L23.04,14.86 ZM-2.22,-7.6 Q-7.66,-7.6 -11.06,-4.99 Q-14.45,-2.38 -16.34,1.45 L-16.34,26.82 Q-14.4,30.7 -10.95,33.34 Q-7.5,35.98 -2.12,35.98 Q5.96,35.98 9.49,29.76 Q13.02,23.53 13.02,14.86 L13.02,13.73 Q13.02,5.06 9.65,-1.27 Q6.29,-7.6 -2.22,-7.6 Z" fill="#000206" />
		</g>
		<g transform="matrix(1.57304847240448, 0, 0, 1, -24.57935333251953, 187.17910766601562)">
			<path d="M4.74,38.4 Q10.39,38.4 14.64,35.04 Q18.9,31.67 19.29,26.42 L29.34,26.42 Q28.94,34.69 21.75,40.89 Q14.56,47.08 4.74,47.08 Q-9.19,47.08 -15.95,37.89 Q-22.71,28.7 -22.71,16.26 L-22.71,13.86 Q-22.71,1.42 -15.95,-7.77 Q-9.19,-16.96 4.74,-16.96 Q15.58,-16.96 22.26,-10.54 Q28.94,-4.12 29.34,5.41 L19.29,5.41 Q18.9,-0.29 14.99,-4.29 Q11.08,-8.28 4.74,-8.28 Q-1.77,-8.28 -5.45,-4.97 Q-9.13,-1.66 -10.64,3.42 Q-12.15,8.5 -12.15,13.86 L-12.15,16.26 Q-12.15,21.68 -10.67,26.76 Q-9.19,31.84 -5.5,35.12 Q-1.82,38.4 4.74,38.4 Z" fill="#000206" />
		</g>
	</g>
</svg>